<?xml version="1.0" encoding="utf-8"?>
<!-- Generator: Adobe Illustrator 17.0.0, SVG Export Plug-In . SVG Version: 6.00 Build 0)  -->
<!DOCTYPE svg PUBLIC "-//W3C//DTD SVG 1.1//EN" "http://www.w3.org/Graphics/SVG/1.1/DTD/svg11.dtd">
<svg version="1.1" id="Layer_1" xmlns="http://www.w3.org/2000/svg" xmlns:xlink="http://www.w3.org/1999/xlink" x="0px" y="0px"
	 width="30px" height="31.171px" viewBox="0 0 30 31.171" enable-background="new 0 0 30 31.171" xml:space="preserve">
<path fill="#C1272D" d="M21.78,14.778c-0.868-1.722-1.736-3.445-2.667-5.293c1.8-0.531,3.473-1.17,5.293-1.093
	c0.346,0.015,0.721,0.257,1.013,0.485c5.78,4.498,6.144,12.918,0.785,17.92c-5.442,5.079-14.2,5.858-20.271,1.697
	c-3.98-2.728-6.302-6.442-5.885-11.434c0.375-4.491,2.697-7.697,6.833-9.535c2.384-1.06,2.741-0.956,4.489,0.963
	c0.339,0.372,0.335,0.596-0.055,0.927c-1.21,1.027-2.4,2.079-3.572,3.15c-0.187,0.171-0.242,0.487-0.358,0.736
	c0.312,0.086,0.671,0.318,0.929,0.236c1.683-0.534,3.372-1.069,5.005-1.737c1.278-0.523,2.31-0.368,3.406,0.464
	c1.158,0.879,2.432,1.61,3.683,2.36c0.353,0.212,0.803,0.263,1.209,0.387C21.671,14.932,21.726,14.855,21.78,14.778z M3.283,14.651
	c-1.264,1.633-1.407,2.009,0.109,3.115C4.797,16.197,4.681,15.677,3.283,14.651z M1.971,17.849
	c-0.041,0.882,0.014,1.636,0.786,2.146C3.336,18.919,3.17,18.444,1.971,17.849z"/>
<path fill="#39B54A" d="M20.394,14.23c-0.5-0.381-1.002-0.757-1.498-1.143c-1.011-0.785-2.036-1.553-3.018-2.373
	c-0.396-0.331-0.733-0.345-1.184-0.166c-1.664,0.662-3.339,1.297-5.012,1.937C9.38,12.6,9.07,12.693,8.664,12.645
	c0.685-0.623,1.368-1.248,2.055-1.869c0.679-0.614,1.362-1.223,1.973-1.771c-1.296-1.392-2.544-2.732-3.934-4.225
	c1.956,0.778,3.751,1.493,5.744,2.286c-0.875-2.562-2.075-4.693-3.882-6.78c0.999-0.184,1.826-0.357,2.661-0.464
	c0.107-0.014,0.326,0.299,0.378,0.491c0.424,1.576,0.829,3.157,1.221,4.742c0.084,0.337,0.094,0.692,0.138,1.039
	c0.068,0.022,0.137,0.045,0.205,0.067c0.559-1.035,1.119-2.07,1.678-3.106c0.055,0.001,0.111,0.001,0.166,0.002
	c0.041,0.301,0.103,0.601,0.119,0.904c0.042,0.767,0.076,1.534,0.088,2.302c0.009,0.557,0.265,0.887,0.817,0.909
	c1.172,0.048,2.346,0.046,3.518,0.1c0.575,0.026,1.147,0.132,1.721,0.202c-0.003,0.107-0.007,0.213-0.01,0.32
	c-1.722,0.437-3.444,0.874-5.172,1.312c0.295,1.955,2.1,3.131,2.483,4.959C20.551,14.12,20.473,14.175,20.394,14.23z"/>
<path fill="#C1272D" d="M19.686,6.722c-0.296,0.019-0.603,0.094-0.883,0.037C18.612,6.72,18.46,6.495,18.29,6.353
	c0.222-0.118,0.463-0.355,0.662-0.324c0.286,0.044,0.542,0.284,0.811,0.44C19.737,6.553,19.712,6.638,19.686,6.722z"/>
<path fill="#FFFFFF" d="M3.283,14.651c1.398,1.026,1.513,1.546,0.109,3.115C1.877,16.66,2.019,16.284,3.283,14.651z"/>
<path fill="#FFFFFF" d="M1.971,17.849c1.199,0.595,1.365,1.07,0.786,2.146C1.984,19.485,1.93,18.732,1.971,17.849z"/>
</svg>
